<svg width="97" height="97" viewBox="0 0 97 97" fill="none" xmlns="http://www.w3.org/2000/svg">
<g id="person_24dp_E8EAED_FILL0_wght400_GRAD0_opsz24(1) 1">
<path id="Vector" d="M19.2322 63.8967L20.8155 64.8643L20.8155 64.8643L19.2322 63.8967ZM19.2322 63.8967C18.9923 64.1268 18.7839 64.3504 18.6054 64.5573L23.7483 61.4598C23.2618 61.5715 22.809 61.7153 22.3936 61.8775C22.1398 61.9766 21.9 62.0826 21.6751 62.1924C20.7902 62.6242 20.1049 63.1263 19.6069 63.5559M19.2322 63.8967C19.2398 63.8894 19.2474 63.8822 19.255 63.8749C19.3597 63.7752 19.4769 63.668 19.6069 63.5559M19.6069 63.5559L22.0073 65.0298L19.6069 63.5559ZM19.6069 63.5559L18.7607 63.0363L19.6069 63.5559ZM44.5866 39.7898C44.586 39.7898 44.5732 39.7803 44.5501 39.7614C44.5757 39.7804 44.5872 39.7899 44.5866 39.7898ZM48.7888 38.5607C47.3536 38.5607 46.2251 38.2308 45.1565 37.4448L46.9718 35.9737L47.6996 35.3839C47.7403 35.5057 47.7858 35.6338 47.8366 35.7672C48.1406 36.5657 48.636 37.5556 49.4483 38.5354C49.2355 38.5524 49.016 38.5607 48.7888 38.5607ZM57.345 62.6671L40.2327 62.6671C43.0488 62.1313 45.8982 61.8635 48.7888 61.8635C51.6795 61.8635 54.5289 62.1313 57.345 62.6671Z" fill="white" stroke="white" stroke-width="19.2851"/>
</g>
</svg>
